/* XPM */
static char * map_xpm[] = {
"110 25 4 1",
" 	c None",
".	c #FFFFFF",
"+	c #040404",
"@	c #000000",
".................................++++++++++++....................@@@@@@@@@@@@@@@@@@@@@........................",
"....................@....@@@.......@@@@@@@@@.........@@.........@@@@@@@@@@@@@@@@@@@@@@@@@@@...................",
"....@@@@@@@@@@@@@@@@@@@@@@@.......@@@@@@@.............@@@@@...@@@@@@@@@@@@@@@@@@@@@@@@@@@@@@@@@@@@@...........",
".@@@@@@@@@@@@@@@@@@@@@@@@@..@@.....@@..............@@.@@@@@@@@@@@@@@@@@@@@@@@@@@@@@@@@@@@@@@@@@@@@@@..........",
"........@@@@@@@@@@@@@@@@@@@@@@.........................@@@@@@@@@@@@@@@@@@@@@@@@@@@@@@@@@@@@@.....@@...........",
"........@@@@@@@@@@@@@@@@@@@@@@@.................@@@@@@@@@@@@@@@@@@@@@@@@@@@@@@@@@@@@@@@@@@@@@@................",
".......@@@@@@@@@@@@@@@@@@@@....................@@@@@@@@@@@@@@@@@@@@@@@@@@@@@@@@@@@@@@@@@@@@@@@................",
"......@@@@@@@@@@@@@@@@@@......................@@@.....@@@@@@@@@@@.@@@@@@@@@@@@@@@@@@@@@@@@@@@...@.............",
"......@@@@@@@@@@@@@@@@.....................................@@@@@@@@@@@@@@@@@@@@@@@@@@@@@@@@.....@.............",
".......@@@@@@@@@@@@@.........................@@@@@@@@@.....@@@@@@@@@@@@@@@@@@@@@@@@@@@@@@@@...................",
".........@@@@@.............................@@@@@@@@@@@@@@@@@@@@@@@@@@@@@@@@@@@@@@@@@@@@@@@@...................",
"..........@@@@@...........................@@@@@@@@@@@@@@@@@@@@@@@@@@@.....@@@@@@..@@@@@@@...@.................",
"............@@@@@.........................@@@@@@@@@@@@@@@@@@@@@@@@@........@@@......@@@@....@@................",
".................@@@@@@@@..................@@@@@@@@@@@@@@@@@@@@@@@...........@......@@@......@@...............",
"..................@@@@@@@@@@@......................@@@@@@@@@@@@@@@...................@@....@..................",
"..................@@@@@@@@@@@@......................@@@@@@@@@@@@.....................@@..@@@..................",
"..................@@@@@@@@@@@@@@@@@..................@@@@@@@@@@....................................@@@........",
"...................@@@@@@@@@@@@@@@@..................@@@@@@@@@@...............................................",
".....................@@@@@@@@@@@@@...................@@@@@@@@@@..@............................@@@@@.@@........",
".......................@@@@@@@@@@....................@@@@@@@@...@@........................@@@@@@@@@@@@@.......",
".......................@@@@@@@@.......................@@@@@@.............................@@@@@@@@@@@@@@.......",
".......................@@@@@@@.........................@@@@..............................@@@@@.@@@@@@@@....@..",
".......................@@@@@.....................................................................@@@......@@..",
"........................@@@...............................................................................@...",
"........................@@@.......................................................................@@.........."};
